# xmcd
#
# Track frame offsets:
#	150
#	11109
#	19416
#	31772
#	42955
#	53031
#	63431
#	75987
#	87966
#	98709
#	107954
#	119938
#	130913
#	142305
#
# Disc length: 2054 seconds
#
# Revision: 0
# Processed by: cddbd v1.5.1PL2 Copyright (c) Steve Scherf et al.
# Submitted via: dBpowerAMP V4.0
#
DISCID=c208040e
DTITLE=Johnny Cash - The Original | Best of [CD1]
DYEAR=2005
DGENRE=Country
TTITLE0=Cry, Cry, Cry
TTITLE1=Guess Things Happen That Way
TTITLE2=I Walk The Line
TTITLE3=Mean Eyed Cat
TTITLE4=Hey Porter
TTITLE5=There You Go
TTITLE6=Next In Line
TTITLE7=Home Of The Blues
TTITLE8=Train Of Love
TTITLE9=Luther Played The Boogie
TTITLE10=You're The Nearest Thing To Heaven
TTITLE11=I Love You Because
TTITLE12=Big River
TTITLE13=So Doggone Lonesome
EXTD=
EXTT0=
EXTT1=
EXTT2=
EXTT3=
EXTT4=
EXTT5=
EXTT6=
EXTT7=
EXTT8=
EXTT9=
EXTT10=
EXTT11=
EXTT12=
EXTT13=
PLAYORDER=
